<?xml version="1.0" encoding="utf-8"?>
<!-- Generator: Adobe Illustrator 15.0.0, SVG Export Plug-In . SVG Version: 6.00 Build 0)  -->
<!DOCTYPE svg PUBLIC "-//W3C//DTD SVG 1.1//EN" "http://www.w3.org/Graphics/SVG/1.1/DTD/svg11.dtd">
<svg version="1.1" id="Layer_1" xmlns="http://www.w3.org/2000/svg" xmlns:xlink="http://www.w3.org/1999/xlink" x="0px" y="0px"
	 width="228px" height="32px" viewBox="0 0 227.99 32.003" enable-background="new 0 0 227.99 32.003" xml:space="preserve">
<g display="none" opacity="0.17">
	<g display="inline">
		<g>
			<path d="M59.521,20.203c-0.741,0-1.11,0.434-1.11,1.301c0,0.524,0.297,0.821,0.893,0.894l1.22,0.163l0.027,3.441H49.252
				l-0.027-3.604c0.198,0,0.396,0,0.596,0c1.047,0,1.833-0.614,2.357-1.842L58.22,6.547h8.508l6.069,13.926
				c0.56,1.283,1.562,1.924,3.008,1.924v3.604H62.473v-3.495l1.22-0.162c0.578-0.073,0.867-0.37,0.867-0.895
				c0-0.831-0.389-1.246-1.165-1.246H59.521z M61.255,13.701l-1.247,3.441h2.493L61.255,13.701z"/>
			<path d="M100.915,17.061v8.94H77.749v-3.333h0.217c0.542,0,0.998-0.185,1.369-0.555c0.37-0.37,0.555-0.827,0.555-1.369v-8.886
				c0-0.56-0.226-1.03-0.677-1.409c-0.452-0.38-0.958-0.569-1.518-0.569V6.521h12.789V9.88c-0.615,0-1.12,0.186-1.517,0.554
				c-0.398,0.371-0.597,0.854-0.597,1.45v9.375c0,0.759,0.28,1.138,0.84,1.138h2.683c0.632,0,1.183-0.325,1.652-0.976
				c0.362-0.505,0.542-1.011,0.542-1.518v-2.844H100.915z"/>
			<path d="M102.779,22.642c0.613,0,1.128-0.186,1.543-0.556c0.416-0.37,0.624-0.844,0.624-1.422v-8.805
				c0-0.56-0.226-1.03-0.677-1.409c-0.452-0.38-0.958-0.569-1.518-0.569V6.521h25.902v8.697h-6.828v-2.439
				c0-0.578-0.221-1.137-0.663-1.679c-0.442-0.543-0.952-0.813-1.53-0.813h-5.609c-0.38,0-0.633,0.244-0.759,0.732
				c-0.018,0.072-0.026,0.225-0.026,0.46v2.331c0,0.107,0.099,0.199,0.298,0.27c0.126,0.109,0.271,0.163,0.433,0.163h1.41
				c0.217,0,0.397-0.207,0.542-0.623c0.126-0.361,0.172-0.66,0.136-0.894h3.44v6.583h-3.224c-0.055-0.289-0.189-0.668-0.407-1.138
				c-0.018-0.055-0.145-0.163-0.379-0.326c-0.308-0.234-0.578-0.36-0.813-0.379h-0.948l-0.352,0.488v3.332
				c0,0.235,0.09,0.479,0.27,0.732c0.181,0.252,0.371,0.379,0.569,0.379h5.42c0.578,0,1.088-0.266,1.53-0.799
				c0.442-0.532,0.663-1.097,0.663-1.694v-2.113h6.828v8.209h-25.848L102.779,22.642z"/>
		</g>
		<g>
			<path d="M32.721,23.863c2.409,0,3.733-0.471,3.974-1.415c0.02-0.08,0.03-0.21,0.03-0.391c0-0.982-0.763-1.565-2.289-1.746
				c-0.401-0.041-1.134-0.121-2.197-0.241c-7.446-0.963-11.169-3.392-11.169-7.286c0-2.368,1.294-4.254,3.883-5.659
				c2.308-1.265,4.987-1.896,8.038-1.896c0.983,0,2.95,0.342,5.901,1.023c0.3,0.06,0.562,0.12,0.782,0.18
				C40.458,6.674,40.899,6.794,41,6.794c0.34,0,0.622-0.089,0.843-0.27c0.101-0.08,0.282-0.331,0.542-0.752h3.975v5.9h-4.757
				l-0.753-0.664c-1.565-1.385-3.633-2.077-6.202-2.077c-1.384,0-2.278,0.312-2.679,0.933c-0.141,0.222-0.21,0.412-0.21,0.572
				c0,0.643,1.013,1.155,3.041,1.536c1.264,0.24,2.528,0.471,3.792,0.692c1.465,0.281,2.71,0.582,3.733,0.903
				c1.826,0.562,3.161,1.344,4.004,2.348c0.903,1.083,1.355,2.549,1.355,4.395c0,2.268-1.165,4.094-3.492,5.479
				c-2.027,1.204-4.486,1.806-7.376,1.806c-3.492,0-6.092-0.26-7.797-0.782c-0.242-0.101-0.602-0.251-1.084-0.452
				c-0.3-0.1-0.592-0.15-0.872-0.15c-0.201,0-0.438,0.085-0.708,0.256c-0.27,0.17-0.436,0.346-0.496,0.526l-0.181,0.482h-4.094
				v-6.653h5.298l0.181,0.542c0.18,0.562,0.822,1.104,1.926,1.626c0.983,0.461,1.836,0.733,2.559,0.812
				C31.908,23.844,32.299,23.863,32.721,23.863z"/>
		</g>
		<g>
			<path d="M140.481,30.439c-0.311,0-0.558-0.143-0.695-0.401c-0.09-0.201-0.092-0.402-0.014-0.616
				c0.153-0.377,0.708-0.988,3.77-2.049c0.669-2.124,2.136-5.121,4.362-8.911c0.907-1.539,1.394-2.37,1.463-2.494
				c0.072-0.157,0.113-0.315,0.113-0.457c0-0.081,0-0.204-0.37-0.204c-0.701,0-2.526,0.152-5.424,0.452
				c-1.815,0.201-3.517,0.417-5.06,0.643c-1.342,2.039-2.6,4.302-3.74,6.729c-0.629,1.359-0.761,1.893-0.761,2.101
				c0,0.254,0.083,0.412,0.495,0.412c0.106,0,0.492-0.028,1.727-0.164c0.6-0.069,1.151-0.104,1.638-0.104
				c0.971,0,1.116,0.519,1.116,0.828c0,0.338-0.204,0.763-1.172,0.868c-2.336,0.273-4.104,0.556-5.252,0.84
				c-1.233,0.325-2.895,0.926-4.937,1.784c-0.312,0.139-0.548,0.205-0.738,0.205c-0.467,0-0.745-0.263-0.745-0.704
				c0-0.388,0.191-0.711,0.552-0.935c0.564-0.344,1.659-0.849,3.254-1.503c0.727-2.166,2.041-4.914,3.906-8.173
				c1.276-2.208,3.668-5.922,7.111-11.038c0.215-0.331,0.226-0.458,0.226-0.48c0-0.024,0-0.08-0.226-0.08
				c-0.055,0-0.313,0.037-1.339,0.513c-0.979,0.442-1.288,0.499-1.447,0.499c-0.257,0-0.451-0.074-0.576-0.221
				c-0.123-0.144-0.165-0.341-0.125-0.585c0.052-0.368,0.291-0.667,0.708-0.883c1.534-0.816,3.335-1.517,5.354-2.083
				c2.528-0.706,4.495-1.063,5.847-1.063c0.954,0,1.097,0.532,1.097,0.849c0,0.349-0.19,0.782-1.094,0.869
				c-1.229,0.106-2.374,0.324-3.405,0.647c-1.729,2.197-3.452,4.608-5.121,7.167c-0.854,1.316-0.944,1.608-0.952,1.667
				c0.014,0.053,0.05,0.072,0.144,0.072c0.089,0,0.726-0.062,3.994-0.473c3.472-0.381,5.769-0.576,6.833-0.581
				c0.942-1.429,2.176-3.192,3.668-5.243c0.224-0.304,0.241-0.438,0.241-0.473c0-0.09,0-0.12-0.143-0.12
				c-0.083,0.002-0.496,0.09-2.51,0.87c-0.32,0.123-0.559,0.182-0.73,0.182c-0.71,0-0.787-0.435-0.787-0.622
				c0-0.326,0.128-0.777,0.74-1.071c1.891-0.966,4.152-1.764,6.718-2.371c2.1-0.498,3.737-0.75,4.867-0.75
				c0.973,0,1.118,0.532,1.118,0.849c0,0.327-0.185,0.74-1.066,0.847c-1.278,0.145-2.401,0.325-3.34,0.535
				c-1.09,1.305-2.677,3.512-4.719,6.561c-3.114,4.629-5.406,8.555-6.813,11.667c-0.52,1.146-0.598,1.527-0.598,1.652
				c0,0.13,0,0.348,0.515,0.348c0.118,0,0.495-0.028,1.621-0.162c0.628-0.07,1.207-0.106,1.723-0.106
				c0.858,0,0.951,0.579,0.951,0.828c0,0.357-0.204,0.804-1.173,0.909c-4.027,0.449-7.418,1.297-10.078,2.518
				C140.873,30.374,140.645,30.439,140.481,30.439z"/>
			<path d="M149.502,3.416c0.564,0,0.847,0.2,0.847,0.599c0,0.358-0.29,0.564-0.868,0.62c-1.279,0.11-2.457,0.337-3.53,0.681
				c-1.747,2.216-3.476,4.63-5.181,7.246c-0.661,1.018-0.992,1.617-0.992,1.796c0,0.219,0.131,0.33,0.393,0.33
				c0.165,0,1.507-0.158,4.025-0.475c3.516-0.386,5.795-0.579,6.836-0.579c0.035,0,0.068,0,0.1,0
				c0.95-1.445,2.194-3.227,3.736-5.347c0.192-0.261,0.289-0.467,0.289-0.62c0-0.247-0.132-0.37-0.393-0.37
				c-0.206,0-1.073,0.295-2.601,0.887c-0.29,0.111-0.503,0.165-0.64,0.165c-0.358,0-0.537-0.123-0.537-0.372
				c0-0.371,0.199-0.654,0.599-0.846c1.885-0.963,4.107-1.748,6.667-2.353c2.091-0.496,3.695-0.743,4.809-0.743
				c0.579,0,0.868,0.2,0.868,0.599c0,0.33-0.282,0.53-0.846,0.599c-1.335,0.151-2.484,0.338-3.447,0.558
				c-1.101,1.307-2.698,3.523-4.789,6.647c-3.138,4.665-5.416,8.566-6.833,11.704c-0.412,0.909-0.62,1.494-0.62,1.755
				c0,0.398,0.256,0.598,0.765,0.598c0.179,0,0.729-0.054,1.651-0.164c0.62-0.069,1.183-0.104,1.693-0.104
				c0.468,0,0.701,0.193,0.701,0.578c0,0.373-0.316,0.592-0.95,0.66c-4.073,0.455-7.458,1.301-10.156,2.54
				c-0.289,0.125-0.496,0.186-0.619,0.186c-0.22,0-0.379-0.09-0.475-0.269c-0.055-0.124-0.055-0.261,0-0.413
				c0.207-0.509,1.451-1.156,3.736-1.94c0.647-2.119,2.105-5.113,4.376-8.979c0.909-1.542,1.396-2.374,1.466-2.499
				c0.096-0.206,0.145-0.399,0.145-0.578c0-0.302-0.206-0.454-0.62-0.454c-0.715,0-2.531,0.151-5.45,0.454
				c-1.871,0.207-3.598,0.427-5.181,0.661c-1.375,2.079-2.649,4.363-3.819,6.854c-0.522,1.128-0.785,1.865-0.785,2.208
				c0,0.442,0.248,0.662,0.745,0.662c0.165,0,0.749-0.055,1.754-0.166c0.591-0.068,1.127-0.103,1.61-0.103
				c0.578,0,0.866,0.193,0.866,0.578c0,0.344-0.316,0.551-0.949,0.619c-2.354,0.275-4.115,0.557-5.285,0.846
				c-1.251,0.33-2.91,0.929-4.974,1.796c-0.276,0.123-0.488,0.186-0.641,0.186c-0.331,0-0.495-0.151-0.495-0.454
				c0-0.303,0.145-0.543,0.434-0.723c0.564-0.344,1.672-0.854,3.323-1.528c0.716-2.173,2.023-4.92,3.922-8.237
				c1.28-2.215,3.647-5.889,7.102-11.022c0.179-0.275,0.269-0.482,0.269-0.62c0-0.22-0.159-0.33-0.476-0.33
				c-0.192,0-0.674,0.179-1.444,0.537c-0.702,0.317-1.149,0.475-1.342,0.475c-0.358,0-0.51-0.172-0.454-0.516
				c0.041-0.289,0.233-0.523,0.577-0.702c1.528-0.812,3.295-1.5,5.306-2.064C146.241,3.767,148.167,3.416,149.502,3.416
				 M149.502,2.916c-1.394,0-3.329,0.351-5.914,1.072c-2.036,0.571-3.854,1.279-5.406,2.104c-0.61,0.317-0.792,0.758-0.837,1.073
				c-0.063,0.389,0.064,0.638,0.183,0.777c0.12,0.141,0.35,0.309,0.766,0.309c0.206,0,0.536-0.063,1.547-0.52
				c0.636-0.295,0.959-0.414,1.116-0.461c-0.024,0.042-0.053,0.09-0.09,0.147c-3.441,5.114-5.836,8.832-7.115,11.044
				c-1.844,3.22-3.151,5.947-3.89,8.111c-1.57,0.646-2.612,1.13-3.182,1.477c-0.557,0.346-0.673,0.816-0.673,1.15
				c0,0.579,0.391,0.954,0.995,0.954c0.226,0,0.495-0.073,0.845-0.229c2.021-0.849,3.672-1.446,4.897-1.769
				c1.13-0.28,2.888-0.561,5.216-0.833c1.21-0.131,1.391-0.755,1.391-1.116c0-0.253-0.099-1.078-1.366-1.078
				c-0.496,0-1.058,0.036-1.668,0.106c-1.286,0.141-1.615,0.162-1.697,0.162c-0.149,0-0.215-0.029-0.227-0.039l0,0
				c0,0-0.018-0.03-0.018-0.123c0-0.094,0.053-0.517,0.739-1.998c1.117-2.377,2.347-4.598,3.66-6.602
				c1.51-0.22,3.171-0.431,4.941-0.626c2.886-0.299,4.702-0.451,5.395-0.451c0.051,0,0.089,0.003,0.116,0.007
				c-0.009,0.097-0.041,0.2-0.094,0.313c-0.017,0.027-0.225,0.388-1.443,2.456c-2.194,3.736-3.655,6.709-4.347,8.843
				c-3.002,1.051-3.608,1.672-3.798,2.142c-0.132,0.362-0.068,0.635,0.006,0.804c0.199,0.376,0.524,0.565,0.932,0.565
				c0.201,0,0.453-0.07,0.817-0.227c2.646-1.215,6.012-2.055,10.014-2.501c1.213-0.131,1.394-0.781,1.394-1.157
				c0-0.521-0.315-1.078-1.201-1.078c-0.525,0-1.113,0.036-1.749,0.107c-1.176,0.14-1.504,0.161-1.595,0.161
				c-0.177,0-0.246-0.032-0.262-0.042c0.001-0.003-0.003-0.022-0.003-0.056c0-0.047,0.028-0.343,0.575-1.549
				c1.401-3.101,3.687-7.014,6.793-11.631c2.003-2.993,3.566-5.169,4.649-6.476c0.914-0.2,1.999-0.372,3.229-0.512
				c1.123-0.136,1.29-0.745,1.29-1.095c0-0.258-0.099-1.099-1.368-1.099c-1.149,0-2.806,0.254-4.924,0.757
				c-2.585,0.611-4.866,1.417-6.78,2.394c-0.558,0.269-0.871,0.729-0.871,1.292c0,0.421,0.272,0.872,1.037,0.872
				c0.206,0,0.466-0.063,0.819-0.198c1.324-0.512,1.937-0.718,2.219-0.801c-0.025,0.04-0.057,0.086-0.096,0.14
				c-1.458,2.004-2.669,3.732-3.604,5.145c-1.131,0.018-3.335,0.208-6.721,0.58c-2.44,0.307-3.392,0.416-3.76,0.454
				c0.113-0.219,0.343-0.62,0.808-1.336c1.649-2.528,3.351-4.912,5.059-7.087c0.994-0.306,2.095-0.512,3.275-0.614
				c1.196-0.114,1.325-0.82,1.325-1.118C150.849,3.756,150.752,2.916,149.502,2.916L149.502,2.916z"/>
		</g>
		<g>
			<path d="M160.98,29.758c-1.434,0-2.588-0.501-3.432-1.491c-0.833-0.963-1.256-2.24-1.256-3.795c0-3.11,1.351-6.466,4.014-9.977
				c2.915-3.854,7.085-7.088,12.395-9.612c2.551-1.213,5.125-2.128,7.647-2.721c0.208-0.046,0.393-0.069,0.552-0.069
				c0.526,0,0.828,0.272,0.828,0.746c0,0.294-0.161,0.689-0.926,0.901c-0.69,0.196-1.356,0.413-1.989,0.646
				c0.67,0.301,1.24,0.716,1.698,1.24c0.931,1.044,1.404,2.33,1.404,3.818c0,2.299-0.98,4.889-2.914,7.697
				c-1.533,2.197-3.534,4.372-5.946,6.468c-2.29,1.973-4.585,3.54-6.823,4.658C164.251,29.256,162.485,29.758,160.98,29.758z
				 M174.642,5.799c-3.845,1.724-7.164,4.103-9.864,7.073c-1.68,1.842-3.012,3.909-3.959,6.144c-0.741,1.71-1.116,3.267-1.116,4.629
				c0,1.011,0.253,1.849,0.753,2.489c0.547,0.699,1.293,1.039,2.28,1.039c1.189,0,2.697-0.497,4.483-1.478
				c2.167-1.191,4.338-3.007,6.456-5.396c1.859-2.089,3.282-4.282,4.231-6.517c0.589-1.368,0.888-2.591,0.888-3.638
				c0-1.574-0.61-2.728-1.866-3.526c-0.614-0.379-1.308-0.646-2.061-0.791L174.642,5.799z"/>
			<path d="M180.9,2.342c0.385,0,0.578,0.166,0.578,0.496c0,0.303-0.248,0.523-0.743,0.66c-0.921,0.262-1.795,0.558-2.622,0.889
				c0.909,0.288,1.644,0.756,2.209,1.403c0.895,1.004,1.342,2.222,1.342,3.653c0,2.257-0.956,4.776-2.87,7.555
				c-1.527,2.188-3.496,4.329-5.904,6.42c-2.284,1.968-4.541,3.509-6.771,4.623c-1.954,0.978-3.667,1.466-5.139,1.466
				c-1.363,0-2.443-0.467-3.242-1.403c-0.798-0.922-1.197-2.133-1.197-3.633c0-3.069,1.321-6.344,3.963-9.825
				c2.904-3.84,7.004-7.019,12.303-9.538c2.546-1.21,5.079-2.112,7.597-2.704C180.597,2.362,180.762,2.342,180.9,2.342
				 M162.735,27.424c1.238,0,2.772-0.503,4.603-1.508c2.201-1.21,4.376-3.027,6.522-5.449c1.886-2.12,3.31-4.314,4.274-6.585
				c0.604-1.403,0.908-2.649,0.908-3.736c0-1.651-0.661-2.897-1.982-3.737c-0.646-0.399-1.363-0.674-2.147-0.826l-0.309-0.041
				c-3.922,1.748-7.26,4.135-10.012,7.162c-1.707,1.872-3.042,3.943-4.004,6.214c-0.757,1.748-1.136,3.323-1.136,4.727
				c0,1.073,0.269,1.955,0.806,2.643C160.849,27.044,161.674,27.424,162.735,27.424 M180.9,1.842c-0.177,0-0.38,0.025-0.603,0.074
				c-2.547,0.599-5.137,1.52-7.704,2.74c-5.346,2.542-9.547,5.801-12.487,9.688c-2.697,3.554-4.064,6.961-4.064,10.127
				c0,1.617,0.444,2.95,1.319,3.96c0.891,1.045,2.11,1.576,3.62,1.576c1.544,0,3.349-0.511,5.363-1.519
				c2.256-1.127,4.569-2.706,6.874-4.691c2.43-2.11,4.443-4.301,5.988-6.513c1.965-2.853,2.96-5.49,2.96-7.841
				c0-1.552-0.494-2.893-1.469-3.986c-0.355-0.407-0.774-0.751-1.254-1.031c0.462-0.159,0.94-0.308,1.43-0.448
				c0.962-0.267,1.106-0.83,1.106-1.141C181.978,2.356,181.694,1.842,180.9,1.842L180.9,1.842z M162.735,26.924
				c-0.906,0-1.587-0.309-2.083-0.943c-0.464-0.595-0.7-1.381-0.7-2.335c0-1.328,0.369-2.852,1.095-4.528
				c0.938-2.212,2.254-4.255,3.915-6.076c2.663-2.929,5.932-5.278,9.717-6.985l0.168,0.022c0.693,0.135,1.359,0.391,1.95,0.755
				c1.172,0.745,1.745,1.83,1.745,3.312c0,1.013-0.292,2.203-0.867,3.538c-0.939,2.213-2.348,4.382-4.188,6.451
				c-2.099,2.368-4.249,4.166-6.39,5.343C165.349,26.437,163.881,26.924,162.735,26.924L162.735,26.924z"/>
		</g>
		<g>
			<path d="M201.377,4.387c0.909,0.288,1.645,0.756,2.21,1.403c0.894,1.004,1.341,2.222,1.341,3.653
				c0,2.257-0.956,4.776-2.869,7.555c-1.527,2.188-3.496,4.329-5.903,6.42c-2.286,1.968-4.542,3.509-6.771,4.623
				c-1.954,0.978-3.667,1.466-5.14,1.466c-1.362,0-2.443-0.467-3.241-1.403c-0.798-0.922-1.197-2.133-1.197-3.633
				c0-3.069,1.32-6.344,3.963-9.825c2.902-3.84,7.004-7.019,12.303-9.538c2.546-1.21,5.078-2.112,7.598-2.704
				c0.191-0.042,0.356-0.062,0.494-0.062c0.385,0,0.578,0.166,0.578,0.496c0,0.303-0.248,0.523-0.744,0.66
				C203.076,3.76,202.203,4.056,201.377,4.387z M187.857,12.705c-1.708,1.872-3.042,3.943-4.006,6.214
				c-0.757,1.748-1.135,3.323-1.135,4.727c0,1.073,0.268,1.955,0.805,2.643c0.592,0.756,1.418,1.135,2.478,1.135
				c1.237,0,2.772-0.503,4.603-1.508c2.201-1.21,4.377-3.027,6.523-5.449c1.887-2.12,3.31-4.314,4.273-6.585
				c0.605-1.403,0.908-2.649,0.908-3.736c0-1.651-0.661-2.897-1.981-3.737c-0.647-0.399-1.363-0.674-2.147-0.826l-0.309-0.041
				C193.945,7.29,190.608,9.678,187.857,12.705z"/>
			<g>
				<path d="M204.164,2.342c0.385,0,0.578,0.166,0.578,0.496c0,0.303-0.248,0.523-0.744,0.66c-0.922,0.262-1.795,0.558-2.621,0.889
					c0.909,0.288,1.645,0.756,2.21,1.403c0.894,1.004,1.341,2.222,1.341,3.653c0,2.257-0.956,4.776-2.869,7.555
					c-1.527,2.188-3.496,4.329-5.903,6.42c-2.286,1.968-4.542,3.509-6.771,4.623c-1.954,0.978-3.667,1.466-5.14,1.466
					c-1.362,0-2.443-0.467-3.241-1.403c-0.798-0.922-1.197-2.133-1.197-3.633c0-3.069,1.32-6.344,3.963-9.825
					c2.902-3.84,7.004-7.019,12.303-9.538c2.546-1.21,5.078-2.112,7.598-2.704C203.861,2.362,204.026,2.342,204.164,2.342
					 M185.999,27.424c1.237,0,2.772-0.503,4.603-1.508c2.201-1.21,4.377-3.027,6.523-5.449c1.887-2.12,3.31-4.314,4.273-6.585
					c0.605-1.403,0.908-2.649,0.908-3.736c0-1.651-0.661-2.897-1.981-3.737c-0.647-0.399-1.363-0.674-2.147-0.826l-0.309-0.041
					c-3.924,1.748-7.261,4.135-10.012,7.162c-1.708,1.872-3.042,3.943-4.006,6.214c-0.757,1.748-1.135,3.323-1.135,4.727
					c0,1.073,0.268,1.955,0.805,2.643C184.113,27.044,184.939,27.424,185.999,27.424 M204.164,1.842
					c-0.177,0-0.38,0.025-0.603,0.074c-2.547,0.598-5.137,1.52-7.704,2.74c-5.349,2.542-9.55,5.802-12.487,9.688
					c-2.696,3.552-4.064,6.959-4.064,10.126c0,1.617,0.444,2.95,1.319,3.96c0.89,1.045,2.108,1.576,3.619,1.576
					c1.544,0,3.349-0.511,5.363-1.519c2.253-1.126,4.565-2.704,6.874-4.691c2.43-2.112,4.444-4.303,5.987-6.513
					c1.964-2.854,2.959-5.491,2.959-7.841c0-1.551-0.494-2.892-1.467-3.986c-0.355-0.407-0.775-0.751-1.255-1.031
					c0.462-0.159,0.94-0.309,1.43-0.448c0.963-0.267,1.107-0.829,1.107-1.141C205.242,2.356,204.959,1.842,204.164,1.842
					L204.164,1.842z M185.999,26.924c-0.905,0-1.587-0.309-2.084-0.943c-0.463-0.594-0.698-1.379-0.698-2.335
					c0-1.329,0.368-2.853,1.094-4.528c0.939-2.214,2.257-4.257,3.916-6.076c2.663-2.93,5.932-5.279,9.718-6.985l0.168,0.022
					c0.692,0.135,1.358,0.391,1.95,0.756c1.171,0.745,1.744,1.83,1.744,3.311c0,1.014-0.292,2.205-0.867,3.538
					c-0.94,2.216-2.349,4.385-4.188,6.451c-2.098,2.367-4.248,4.165-6.391,5.343C188.614,26.437,187.146,26.924,185.999,26.924
					L185.999,26.924z"/>
			</g>
		</g>
	</g>
</g>
<g>
	<path d="M22.987,26.398c-1.391,1.687-2.337,2.767-2.84,3.24c-1.302,1.272-2.53,1.908-3.684,1.908c-1.243,0-1.864-0.562-1.864-1.687
		c0-0.976,0.325-2.736,0.977-5.281c-2.368,2.929-3.669,4.497-3.905,4.704c-1.657,1.568-3.491,2.352-5.503,2.352
		c-1.45,0-2.589-0.548-3.417-1.642c-0.77-0.977-1.154-2.219-1.154-3.728c0-3.401,1.36-6.819,4.083-10.251
		c2.87-3.668,5.961-5.503,9.275-5.503c1.923,0,3.166,0.843,3.728,2.53l0.444-2.13c1.124-0.147,2.115-0.281,2.974-0.399l0.399,0.133
		c-2.959,11.183-4.438,17.085-4.438,17.707c0,0.503,0.207,0.754,0.621,0.754c0.384,0,1.05-0.473,1.997-1.42
		c0.592-0.592,1.183-1.198,1.775-1.82L22.987,26.398z M17.795,14.46c0-1.923-0.992-2.884-2.974-2.884
		c-2.308,0-4.482,1.908-6.523,5.725c-1.805,3.373-2.707,6.346-2.707,8.92c0,0.829,0.267,1.539,0.799,2.13
		c0.533,0.592,1.213,0.888,2.042,0.888c2.337,0,4.541-1.908,6.612-5.725C16.878,20.112,17.795,17.094,17.795,14.46z"/>
	<path d="M42.425,15.748c-0.177-0.65-0.518-1.479-1.021-2.485c-0.385-0.384-1.213-0.577-2.485-0.577l-4.482-0.044
		c-0.681,0-1.021,0.163-1.021,0.488v6.612l4.039,0.044c1.035,0,1.753-0.192,2.152-0.577c0.399-0.384,0.688-1.139,0.865-2.263h1.109
		v7.278h-1.109c-0.148-1.035-0.37-1.753-0.666-2.152c-0.296-0.399-0.903-0.599-1.819-0.599l-4.571-0.089v6.435
		c0,0.888,0.192,1.472,0.577,1.753c0.384,0.282,1.08,0.437,2.086,0.466v1.021h-8.698v-1.021c0.947-0.029,1.62-0.17,2.019-0.422
		c0.399-0.251,0.599-0.791,0.599-1.62V14.239c0-0.888-0.207-1.465-0.621-1.731c-0.266-0.207-0.932-0.355-1.997-0.444v-0.976h16.064
		l0.133,4.66H42.425z"/>
	<path d="M62.882,15.748c-0.177-0.65-0.518-1.479-1.021-2.485c-0.385-0.384-1.213-0.577-2.485-0.577l-4.482-0.044
		c-0.681,0-1.021,0.163-1.021,0.488v6.612l4.039,0.044c1.035,0,1.753-0.192,2.152-0.577c0.399-0.384,0.688-1.139,0.865-2.263h1.109
		v7.278H60.93c-0.148-1.035-0.37-1.753-0.666-2.152c-0.296-0.399-0.903-0.599-1.819-0.599l-4.571-0.089v6.435
		c0,0.888,0.192,1.472,0.577,1.753c0.384,0.282,1.08,0.437,2.086,0.466v1.021h-8.698v-1.021c0.947-0.029,1.62-0.17,2.019-0.422
		c0.399-0.251,0.599-0.791,0.599-1.62V14.239c0-0.888-0.207-1.465-0.621-1.731c-0.266-0.207-0.932-0.355-1.997-0.444v-0.976h16.064
		l0.133,4.66H62.882z"/>
	<path d="M76.728,26.221c-2.219,3.58-4.409,5.37-6.568,5.37c-1.45,0-2.174-0.813-2.174-2.441c0-1.479,0.614-4.164,1.842-8.055
		c1.227-3.89,1.841-6.382,1.841-7.478c0-0.621-0.355-0.991-1.065-1.109c-0.148-0.029-0.754-0.044-1.819-0.044v-0.799
		c1.213,0,3.698-0.384,7.456-1.154l0.177,0.133l-3.861,14.067c-0.651,2.368-0.976,3.684-0.976,3.95c0,0.444,0.222,0.666,0.666,0.666
		c0.888,0,2.174-1.212,3.861-3.639L76.728,26.221z M78.104,3.1c0,0.681-0.229,1.272-0.688,1.775
		c-0.459,0.503-1.028,0.754-1.708,0.754c-0.651,0-1.184-0.251-1.598-0.754c-0.415-0.503-0.621-1.094-0.621-1.775
		c0-0.68,0.2-1.265,0.599-1.753c0.399-0.488,0.924-0.732,1.575-0.732c0.71,0,1.294,0.237,1.753,0.71
		C77.875,1.798,78.104,2.39,78.104,3.1z"/>
	<path d="M97.497,31.058H81.255v-1.021c0.946-0.029,1.612-0.17,1.997-0.422c0.384-0.251,0.577-0.806,0.577-1.664V13.928
		c0-0.976-0.503-1.553-1.509-1.73c-0.148-0.029-0.503-0.074-1.065-0.133v-0.976h8.787v0.976c-0.474,0.03-1.14,0.148-1.997,0.355
		c-0.503,0.267-0.754,0.814-0.754,1.642v14.378c0,0.71,0.636,1.065,1.908,1.065c2.633,0,4.363-0.133,5.192-0.399
		c1.479-0.502,2.619-1.715,3.417-3.639h1.198L97.497,31.058z"/>
	<path d="M122.303,17.212c0,3.432-1.427,6.687-4.282,9.763c-2.855,3.077-5.984,4.615-9.386,4.615c-2.012,0-3.661-0.584-4.948-1.753
		c-1.287-1.168-1.93-2.744-1.93-4.727c0-3.52,1.42-6.834,4.26-9.94c2.84-3.106,6.005-4.66,9.497-4.66
		c2.101,0,3.757,0.592,4.97,1.775C121.697,13.47,122.303,15.112,122.303,17.212z M118.398,15.748c0-1.094-0.252-2.042-0.754-2.84
		c-0.562-0.917-1.361-1.375-2.396-1.375c-2.545,0-4.808,1.805-6.79,5.414c-1.746,3.136-2.618,6.095-2.618,8.875
		c0,1.213,0.377,2.323,1.132,3.328c0.754,1.006,1.708,1.509,2.862,1.509c0.858,0,1.864-0.503,3.018-1.509
		c1.627-1.39,2.973-3.446,4.039-6.168C117.895,20.437,118.398,18.026,118.398,15.748z"/>
</g>
<g>
	<path fill="#2F82A7" d="M139.327,30.521l-7.367-9.053h-1.332c0,0.651-0.015,1.524-0.044,2.618c-0.03,1.302-0.044,2.174-0.044,2.618
		c0,1.036,0.185,1.76,0.555,2.174c0.37,0.415,1.102,0.622,2.197,0.622v1.021h-8.609V29.5c1.656,0,2.485-0.577,2.485-1.731V13.303
		c0-0.739-0.266-1.228-0.799-1.464c-0.562-0.118-1.125-0.237-1.686-0.355v-0.932h8.831c1.804,0,3.387,0.37,4.748,1.109
		c1.627,0.888,2.441,2.174,2.441,3.861c0,2.87-1.702,4.704-5.104,5.503l4.749,5.857c0.888,1.065,1.405,1.672,1.553,1.82
		c0.562,0.503,1.271,0.77,2.13,0.799v1.021H139.327z M132.048,12.06c-0.947,0-1.42,0.237-1.42,0.71v7.145
		c4.319,0,6.479-1.346,6.479-4.039C137.107,13.333,135.421,12.06,132.048,12.06z"/>
	<path fill="#2F82A7" d="M168.349,25.861c-1.391,1.687-2.337,2.767-2.84,3.24c-1.302,1.272-2.53,1.908-3.684,1.908
		c-1.243,0-1.864-0.562-1.864-1.687c0-0.976,0.325-2.736,0.977-5.281c-2.368,2.929-3.669,4.497-3.905,4.704
		c-1.657,1.568-3.491,2.352-5.503,2.352c-1.45,0-2.589-0.548-3.417-1.642c-0.77-0.977-1.154-2.219-1.154-3.728
		c0-3.401,1.36-6.819,4.083-10.251c2.87-3.668,5.961-5.503,9.275-5.503c1.923,0,3.166,0.843,3.728,2.53l0.444-2.13
		c1.124-0.147,2.115-0.281,2.974-0.399l0.399,0.133c-2.959,11.183-4.438,17.085-4.438,17.707c0,0.503,0.207,0.754,0.621,0.754
		c0.384,0,1.05-0.473,1.997-1.42c0.592-0.592,1.183-1.198,1.775-1.82L168.349,25.861z M163.157,13.924
		c0-1.923-0.992-2.884-2.974-2.884c-2.308,0-4.482,1.908-6.523,5.725c-1.805,3.373-2.707,6.346-2.707,8.92
		c0,0.829,0.267,1.539,0.799,2.13c0.533,0.592,1.213,0.888,2.042,0.888c2.337,0,4.541-1.908,6.612-5.725
		C162.24,19.575,163.157,16.558,163.157,13.924z"/>
	<path fill="#2F82A7" d="M189.917,30.521V29.5c0.976-0.029,1.642-0.148,1.997-0.355c0.473-0.267,0.71-0.813,0.71-1.642V14.545
		l-7.189,15.976h-0.71l-7.056-15.354v11.316c0,1.095,0.192,1.864,0.577,2.308c0.384,0.444,1.124,0.681,2.219,0.71v1.021h-7.456V29.5
		c1.154,0,1.923-0.222,2.308-0.666c0.384-0.443,0.577-1.227,0.577-2.352v-12.78c0-1.213-0.518-1.893-1.553-2.042
		c-0.089-0.029-0.503-0.074-1.243-0.133v-0.976h6.257l6.657,14.511l6.39-14.511h6.302v0.976c-0.503,0.03-1.154,0.178-1.953,0.444
		c-0.415,0.266-0.622,0.843-0.622,1.731v13.579c0,0.917,0.185,1.509,0.555,1.775c0.37,0.266,1.043,0.415,2.02,0.444v1.021H189.917z"
		/>
	<path fill="#2F82A7" d="M224.396,25.861c-1.391,1.687-2.337,2.767-2.84,3.24c-1.302,1.272-2.529,1.908-3.684,1.908
		c-1.242,0-1.863-0.562-1.863-1.687c0-0.976,0.325-2.736,0.977-5.281c-2.367,2.929-3.669,4.497-3.905,4.704
		c-1.657,1.568-3.491,2.352-5.503,2.352c-1.45,0-2.589-0.548-3.417-1.642c-0.77-0.977-1.154-2.219-1.154-3.728
		c0-3.401,1.36-6.819,4.083-10.251c2.869-3.668,5.961-5.503,9.275-5.503c1.922,0,3.165,0.843,3.727,2.53l0.444-2.13
		c1.124-0.147,2.115-0.281,2.974-0.399l0.399,0.133c-2.959,11.183-4.438,17.085-4.438,17.707c0,0.503,0.207,0.754,0.621,0.754
		c0.385,0,1.051-0.473,1.998-1.42c0.592-0.592,1.183-1.198,1.775-1.82L224.396,25.861z M219.205,13.924
		c0-1.923-0.992-2.884-2.974-2.884c-2.308,0-4.481,1.908-6.523,5.725c-1.805,3.373-2.707,6.346-2.707,8.92
		c0,0.829,0.267,1.539,0.799,2.13c0.532,0.592,1.213,0.888,2.042,0.888c2.336,0,4.541-1.908,6.611-5.725
		C218.287,19.575,219.205,16.558,219.205,13.924z"/>
</g>
</svg>
